<svg width="25" height="27" viewBox="0 0 25 27" fill="none" xmlns="http://www.w3.org/2000/svg">
<path fill-rule="evenodd" clip-rule="evenodd" d="M5.68088 5.78571C5.68088 2.59035 8.7339 0 12.5 0C16.2661 0 19.3191 2.59035 19.3191 5.78571C19.3191 8.98108 16.2661 11.5714 12.5 11.5714C8.7339 11.5714 5.68088 8.98108 5.68088 5.78571Z" fill="white"/>
<path fill-rule="evenodd" clip-rule="evenodd" d="M0.000169619 23.9211C0.117368 18.1486 5.66873 13.5 12.5 13.5C19.3314 13.5 24.8829 18.1488 24.9998 23.9215C25.0076 24.3044 24.7476 24.6549 24.3375 24.8145C20.7325 26.218 16.7226 27 12.5005 27C8.27799 27 4.26771 26.2179 0.662496 24.8142C0.252334 24.6545 -0.00760315 24.304 0.000169619 23.9211Z" fill="white"/>
</svg>
