<svg width="391" height="84" viewBox="0 0 391 84" fill="none" xmlns="http://www.w3.org/2000/svg">
<path d="M26.853 22.5927L29.8503 32.7834H5.94696L9.01916 22.5927H26.853Z" fill="#3E4D4D"/>
<path d="M11.4169 34.6566L21.6826 37.1294L9.76841 57.8106L2.5 50.0926L11.4169 34.6566Z" fill="#3E4D4D"/>
<path d="M14.1144 54.064L21.3827 46.346L33.3719 67.0273L23.0312 69.5L14.1144 54.064Z" fill="#3E4D4D"/>
<path d="M50.0819 61.3324H32.2481L29.2508 51.2166H53.1541" fill="#3E4D4D"/>
<path d="M56.6008 33.8325L47.6839 49.3434L37.4183 46.8706L49.3324 26.1894" fill="#3E4D4D"/>
<path d="M44.9862 29.936L37.7179 37.654L25.7288 16.8978L36.0694 14.5L44.9862 29.936Z" fill="#3E4D4D"/>
<path d="M88.8116 37C88.6412 37 88.4992 36.9432 88.3856 36.8296C88.272 36.716 88.2152 36.574 88.2152 36.4036V17.5176C88.2152 17.2904 88.2909 17.1011 88.4424 16.9496C88.6128 16.7792 88.8116 16.694 89.0388 16.694H91.3676C91.6895 16.694 91.9451 16.836 92.1344 17.12L98.9504 28.6504L100.314 31.036V17.2904C100.314 17.12 100.37 16.978 100.484 16.8644C100.598 16.7508 100.74 16.694 100.91 16.694H102.955C103.125 16.694 103.267 16.7508 103.381 16.8644C103.494 16.978 103.551 17.12 103.551 17.2904V36.1764C103.551 36.4036 103.466 36.6024 103.296 36.7728C103.144 36.9243 102.955 37 102.728 37H100.37C100.049 37 99.7929 36.858 99.6036 36.574L92.5604 24.646L91.4528 22.7148V36.4036C91.4528 36.8012 91.254 37 90.8564 37H88.8116ZM109.294 37C108.953 37 108.66 36.8864 108.414 36.6592C108.187 36.4131 108.073 36.1196 108.073 35.7788V17.9152C108.073 17.5744 108.187 17.2904 108.414 17.0632C108.66 16.8171 108.953 16.694 109.294 16.694H118.979C119.149 16.694 119.291 16.7508 119.405 16.8644C119.518 16.978 119.575 17.12 119.575 17.2904V19.4204C119.575 19.5908 119.518 19.7328 119.405 19.8464C119.291 19.96 119.149 20.0168 118.979 20.0168H111.538V24.8448H117.076C117.246 24.8448 117.388 24.9016 117.502 25.0152C117.615 25.1288 117.672 25.2708 117.672 25.4412V27.4576C117.672 27.628 117.615 27.77 117.502 27.8836C117.388 27.9972 117.246 28.054 117.076 28.054H111.538V33.6772H118.979C119.149 33.6772 119.291 33.734 119.405 33.8476C119.518 33.9612 119.575 34.1032 119.575 34.2736V36.4036C119.575 36.574 119.518 36.716 119.405 36.8296C119.291 36.9432 119.149 37 118.979 37H109.294ZM123.351 37C123.162 37 123.001 36.9432 122.869 36.8296C122.736 36.6971 122.67 36.5456 122.67 36.3752C122.67 36.2237 122.708 36.1007 122.783 36.006L128.492 26.9464L122.641 17.688C122.566 17.5933 122.528 17.4703 122.528 17.3188C122.528 17.1484 122.594 17.0064 122.727 16.8928C122.859 16.7603 123.02 16.694 123.209 16.694H125.709C125.993 16.694 126.191 16.7981 126.305 17.0064L130.537 23.7088L134.768 17.0064C134.882 16.7981 135.081 16.694 135.365 16.694H137.864C138.072 16.694 138.233 16.7603 138.347 16.8928C138.479 17.0064 138.545 17.1484 138.545 17.3188C138.545 17.4703 138.507 17.5933 138.432 17.688L132.581 26.9464L138.29 36.006C138.365 36.1007 138.403 36.2237 138.403 36.3752C138.403 36.5456 138.337 36.6971 138.205 36.8296C138.091 36.9432 137.93 37 137.722 37H135.223C134.939 37 134.74 36.8959 134.626 36.6876L130.537 30.2124L126.447 36.6876C126.333 36.8959 126.135 37 125.851 37H123.351ZM149.463 37.3692C148.024 37.3692 146.727 37.0189 145.573 36.3184C144.437 35.6179 143.537 34.6617 142.875 33.45C142.231 32.2383 141.909 30.8561 141.909 29.3036V17.2904C141.909 17.12 141.966 16.978 142.079 16.8644C142.193 16.7508 142.335 16.694 142.505 16.694H144.777C144.948 16.694 145.09 16.7508 145.203 16.8644C145.317 16.978 145.374 17.12 145.374 17.2904V29.4456C145.374 30.3544 145.544 31.1496 145.885 31.8312C146.226 32.5128 146.699 33.0429 147.305 33.4216C147.93 33.8003 148.649 33.9896 149.463 33.9896C150.277 33.9896 150.987 33.8003 151.593 33.4216C152.199 33.0429 152.673 32.5128 153.013 31.8312C153.354 31.1496 153.525 30.3544 153.525 29.4456V17.2904C153.525 17.12 153.581 16.978 153.695 16.8644C153.809 16.7508 153.951 16.694 154.121 16.694H156.393C156.563 16.694 156.705 16.7508 156.819 16.8644C156.933 16.978 156.989 17.12 156.989 17.2904V29.3036C156.989 30.8561 156.658 32.2383 155.995 33.45C155.352 34.6617 154.462 35.6179 153.326 36.3184C152.209 37.0189 150.921 37.3692 149.463 37.3692ZM166.686 37.3408C165.645 37.3408 164.622 37.1799 163.619 36.858C162.634 36.5172 161.725 36.0533 160.892 35.4664C160.817 35.4096 160.75 35.3149 160.694 35.1824C160.656 35.0309 160.665 34.8984 160.722 34.7848L161.716 32.9956C161.83 32.7684 162.009 32.6548 162.256 32.6548C162.331 32.6548 162.398 32.6643 162.454 32.6832C162.511 32.6832 162.587 32.7116 162.682 32.7684C163.515 33.2985 164.253 33.6583 164.897 33.8476C165.559 34.018 166.146 34.1032 166.658 34.1032C167.68 34.1032 168.475 33.8571 169.043 33.3648C169.611 32.8725 169.895 32.2477 169.895 31.4904C169.895 30.8845 169.706 30.4017 169.327 30.042C168.967 29.6633 168.447 29.332 167.765 29.048C167.102 28.7451 166.326 28.4137 165.436 28.054C165.02 27.8836 164.546 27.6564 164.016 27.3724C163.505 27.0884 163.003 26.7287 162.511 26.2932C162.038 25.8388 161.64 25.2803 161.318 24.6176C161.015 23.9549 160.864 23.1503 160.864 22.2036C160.864 21.0297 161.12 20.0073 161.631 19.1364C162.161 18.2465 162.89 17.5555 163.818 17.0632C164.745 16.5709 165.815 16.3248 167.027 16.3248C168.03 16.3248 169.024 16.4857 170.009 16.8076C171.012 17.1295 171.912 17.5933 172.707 18.1992C172.801 18.256 172.868 18.3601 172.906 18.5116C172.943 18.6441 172.934 18.7672 172.877 18.8808L171.94 20.67C171.826 20.8972 171.646 21.0108 171.4 21.0108C171.325 21.0108 171.258 21.0108 171.202 21.0108C171.145 20.9919 171.069 20.954 170.974 20.8972C170.16 20.3671 169.412 20.0168 168.731 19.8464C168.049 19.6571 167.491 19.5624 167.055 19.5624C166.184 19.5624 165.503 19.7991 165.01 20.2724C164.537 20.7268 164.3 21.3137 164.3 22.0332C164.3 22.5444 164.433 22.9988 164.698 23.3964C164.963 23.7751 165.342 24.1159 165.834 24.4188C166.345 24.7217 166.97 25.0247 167.708 25.3276C168.276 25.5548 168.882 25.8104 169.526 26.0944C170.189 26.3784 170.804 26.7381 171.372 27.1736C171.94 27.6091 172.404 28.1581 172.764 28.8208C173.142 29.4645 173.332 30.2881 173.332 31.2916C173.332 32.4655 173.048 33.5163 172.48 34.444C171.93 35.3528 171.154 36.0628 170.151 36.574C169.166 37.0852 168.011 37.3408 166.686 37.3408Z" fill="#3E4D4D"/>
<path d="M92.3672 57.0078C91.8203 57.0078 91.3307 57.1068 90.8984 57.3047C90.4714 57.5026 90.1094 57.7891 89.8125 58.1641C89.5156 58.5339 89.2891 58.9844 89.1328 59.5156C88.9766 60.0417 88.8984 60.6354 88.8984 61.2969C88.8984 62.1823 89.0234 62.9453 89.2734 63.5859C89.5234 64.2214 89.9036 64.7109 90.4141 65.0547C90.9245 65.3932 91.5703 65.5625 92.3516 65.5625C92.8359 65.5625 93.3073 65.5156 93.7656 65.4219C94.224 65.3281 94.6979 65.2005 95.1875 65.0391V66.6328C94.724 66.8151 94.2552 66.9479 93.7812 67.0312C93.3073 67.1146 92.7604 67.1562 92.1406 67.1562C90.974 67.1562 90.0052 66.9141 89.2344 66.4297C88.4688 65.9453 87.8958 65.263 87.5156 64.3828C87.1406 63.5026 86.9531 62.4714 86.9531 61.2891C86.9531 60.4245 87.0729 59.6328 87.3125 58.9141C87.5521 58.1953 87.901 57.5755 88.3594 57.0547C88.8177 56.5286 89.3828 56.125 90.0547 55.8438C90.7318 55.5573 91.5052 55.4141 92.375 55.4141C92.9479 55.4141 93.5104 55.4792 94.0625 55.6094C94.6198 55.7344 95.1354 55.9141 95.6094 56.1484L94.9531 57.6953C94.5573 57.5078 94.1432 57.3464 93.7109 57.2109C93.2786 57.0755 92.8307 57.0078 92.3672 57.0078ZM104.992 58.3516V67H103.547L103.297 65.8359H103.195C103.013 66.1328 102.781 66.3802 102.5 66.5781C102.219 66.7708 101.906 66.9141 101.562 67.0078C101.219 67.1068 100.857 67.1562 100.477 67.1562C99.8255 67.1562 99.2682 67.0469 98.8047 66.8281C98.3464 66.6042 97.9948 66.2604 97.75 65.7969C97.5052 65.3333 97.3828 64.7344 97.3828 64V58.3516H99.2266V63.6562C99.2266 64.3281 99.362 64.8307 99.6328 65.1641C99.9089 65.4974 100.336 65.6641 100.914 65.6641C101.471 65.6641 101.914 65.5495 102.242 65.3203C102.57 65.0911 102.802 64.7526 102.938 64.3047C103.078 63.8568 103.148 63.3073 103.148 62.6562V58.3516H104.992ZM113.438 64.5312C113.438 65.099 113.299 65.5781 113.023 65.9688C112.747 66.3594 112.344 66.6562 111.812 66.8594C111.286 67.0573 110.641 67.1562 109.875 67.1562C109.271 67.1562 108.75 67.112 108.312 67.0234C107.88 66.9401 107.471 66.8099 107.086 66.6328V65.0469C107.497 65.2396 107.958 65.4062 108.469 65.5469C108.984 65.6875 109.471 65.7578 109.93 65.7578C110.534 65.7578 110.969 65.6641 111.234 65.4766C111.5 65.2839 111.633 65.0286 111.633 64.7109C111.633 64.5234 111.578 64.3568 111.469 64.2109C111.365 64.0599 111.167 63.9062 110.875 63.75C110.589 63.5885 110.167 63.3958 109.609 63.1719C109.062 62.9531 108.602 62.7344 108.227 62.5156C107.852 62.2969 107.568 62.0339 107.375 61.7266C107.182 61.4141 107.086 61.0156 107.086 60.5312C107.086 59.7656 107.388 59.1849 107.992 58.7891C108.602 58.388 109.406 58.1875 110.406 58.1875C110.938 58.1875 111.438 58.2422 111.906 58.3516C112.38 58.4557 112.844 58.6094 113.297 58.8125L112.719 60.1953C112.328 60.0234 111.935 59.8828 111.539 59.7734C111.148 59.6589 110.75 59.6016 110.344 59.6016C109.87 59.6016 109.508 59.6745 109.258 59.8203C109.013 59.9661 108.891 60.1745 108.891 60.4453C108.891 60.6484 108.951 60.8203 109.07 60.9609C109.19 61.1016 109.396 61.2422 109.688 61.3828C109.984 61.5234 110.396 61.6979 110.922 61.9062C111.438 62.1042 111.883 62.3125 112.258 62.5312C112.638 62.7448 112.93 63.0078 113.133 63.3203C113.336 63.6328 113.438 64.0365 113.438 64.5312ZM118.641 65.6719C118.88 65.6719 119.117 65.651 119.352 65.6094C119.586 65.5625 119.799 65.5078 119.992 65.4453V66.8359C119.789 66.9245 119.526 67 119.203 67.0625C118.88 67.125 118.544 67.1562 118.195 67.1562C117.706 67.1562 117.266 67.0755 116.875 66.9141C116.484 66.7474 116.174 66.4635 115.945 66.0625C115.716 65.6615 115.602 65.1068 115.602 64.3984V59.75H114.422V58.9297L115.688 58.2812L116.289 56.4297H117.445V58.3516H119.922V59.75H117.445V64.375C117.445 64.8125 117.555 65.138 117.773 65.3516C117.992 65.5651 118.281 65.6719 118.641 65.6719ZM129.406 62.6562C129.406 63.375 129.312 64.013 129.125 64.5703C128.938 65.1276 128.664 65.599 128.305 65.9844C127.945 66.3646 127.513 66.6562 127.008 66.8594C126.503 67.0573 125.932 67.1562 125.297 67.1562C124.703 67.1562 124.159 67.0573 123.664 66.8594C123.169 66.6562 122.74 66.3646 122.375 65.9844C122.016 65.599 121.737 65.1276 121.539 64.5703C121.341 64.013 121.242 63.375 121.242 62.6562C121.242 61.7031 121.406 60.8958 121.734 60.2344C122.068 59.5677 122.542 59.0599 123.156 58.7109C123.771 58.362 124.503 58.1875 125.352 58.1875C126.148 58.1875 126.852 58.362 127.461 58.7109C128.07 59.0599 128.547 59.5677 128.891 60.2344C129.234 60.901 129.406 61.7083 129.406 62.6562ZM123.133 62.6562C123.133 63.2865 123.208 63.8255 123.359 64.2734C123.516 64.7214 123.755 65.0651 124.078 65.3047C124.401 65.5391 124.818 65.6562 125.328 65.6562C125.839 65.6562 126.255 65.5391 126.578 65.3047C126.901 65.0651 127.138 64.7214 127.289 64.2734C127.44 63.8255 127.516 63.2865 127.516 62.6562C127.516 62.026 127.44 61.4922 127.289 61.0547C127.138 60.612 126.901 60.276 126.578 60.0469C126.255 59.8125 125.836 59.6953 125.32 59.6953C124.56 59.6953 124.005 59.9505 123.656 60.4609C123.307 60.9714 123.133 61.7031 123.133 62.6562ZM141.289 58.1875C142.258 58.1875 142.987 58.4375 143.477 58.9375C143.971 59.4375 144.219 60.2396 144.219 61.3438V67H142.383V61.6719C142.383 61.0156 142.255 60.5208 142 60.1875C141.745 59.8542 141.357 59.6875 140.836 59.6875C140.107 59.6875 139.581 59.9219 139.258 60.3906C138.94 60.8542 138.781 61.5286 138.781 62.4141V67H136.945V61.6719C136.945 61.2344 136.888 60.8698 136.773 60.5781C136.664 60.2812 136.495 60.0599 136.266 59.9141C136.036 59.763 135.747 59.6875 135.398 59.6875C134.893 59.6875 134.49 59.8021 134.188 60.0312C133.891 60.2604 133.677 60.599 133.547 61.0469C133.417 61.4896 133.352 62.0339 133.352 62.6797V67H131.516V58.3516H132.945L133.203 59.5156H133.305C133.482 59.2135 133.701 58.9661 133.961 58.7734C134.227 58.5755 134.521 58.4297 134.844 58.3359C135.167 58.237 135.503 58.1875 135.852 58.1875C136.497 58.1875 137.042 58.3021 137.484 58.5312C137.927 58.7552 138.258 59.099 138.477 59.5625H138.617C138.888 59.0938 139.266 58.7474 139.75 58.5234C140.234 58.2995 140.747 58.1875 141.289 58.1875ZM150.227 58.1875C150.997 58.1875 151.659 58.3464 152.211 58.6641C152.763 58.9818 153.188 59.4323 153.484 60.0156C153.781 60.599 153.93 61.2969 153.93 62.1094V63.0938H148.156C148.177 63.9323 148.401 64.5781 148.828 65.0312C149.26 65.4844 149.865 65.7109 150.641 65.7109C151.193 65.7109 151.688 65.6589 152.125 65.5547C152.568 65.4453 153.023 65.2865 153.492 65.0781V66.5703C153.06 66.7734 152.62 66.9219 152.172 67.0156C151.724 67.1094 151.188 67.1562 150.562 67.1562C149.714 67.1562 148.966 66.9922 148.32 66.6641C147.68 66.3307 147.177 65.8359 146.812 65.1797C146.453 64.5234 146.273 63.7083 146.273 62.7344C146.273 61.7656 146.438 60.9427 146.766 60.2656C147.094 59.5885 147.555 59.0729 148.148 58.7188C148.742 58.3646 149.435 58.1875 150.227 58.1875ZM150.227 59.5703C149.648 59.5703 149.18 59.7578 148.82 60.1328C148.466 60.5078 148.258 61.0573 148.195 61.7812H152.133C152.128 61.349 152.055 60.9661 151.914 60.6328C151.779 60.2995 151.57 60.0391 151.289 59.8516C151.013 59.6641 150.659 59.5703 150.227 59.5703ZM160.383 58.1875C160.529 58.1875 160.688 58.1953 160.859 58.2109C161.031 58.2266 161.18 58.2474 161.305 58.2734L161.133 59.9922C161.023 59.9609 160.888 59.9375 160.727 59.9219C160.57 59.9062 160.43 59.8984 160.305 59.8984C159.977 59.8984 159.664 59.9531 159.367 60.0625C159.07 60.1667 158.807 60.3281 158.578 60.5469C158.349 60.7604 158.169 61.0286 158.039 61.3516C157.909 61.6745 157.844 62.0495 157.844 62.4766V67H156V58.3516H157.438L157.688 59.875H157.773C157.945 59.5677 158.159 59.2865 158.414 59.0312C158.669 58.776 158.961 58.5729 159.289 58.4219C159.622 58.2656 159.987 58.1875 160.383 58.1875ZM170.461 55.5781C171.445 55.5781 172.258 55.6979 172.898 55.9375C173.544 56.1771 174.023 56.5417 174.336 57.0312C174.654 57.5208 174.812 58.1432 174.812 58.8984C174.812 59.4609 174.708 59.9401 174.5 60.3359C174.292 60.7318 174.018 61.0599 173.68 61.3203C173.341 61.5807 172.979 61.7891 172.594 61.9453L175.836 67H173.719L170.961 62.4219H169.125V67H167.25V55.5781H170.461ZM170.336 57.1406H169.125V60.875H170.422C171.292 60.875 171.922 60.7135 172.312 60.3906C172.708 60.0677 172.906 59.5911 172.906 58.9609C172.906 58.2995 172.695 57.8307 172.273 57.5547C171.857 57.2786 171.211 57.1406 170.336 57.1406ZM180.727 58.1875C181.497 58.1875 182.159 58.3464 182.711 58.6641C183.263 58.9818 183.688 59.4323 183.984 60.0156C184.281 60.599 184.43 61.2969 184.43 62.1094V63.0938H178.656C178.677 63.9323 178.901 64.5781 179.328 65.0312C179.76 65.4844 180.365 65.7109 181.141 65.7109C181.693 65.7109 182.188 65.6589 182.625 65.5547C183.068 65.4453 183.523 65.2865 183.992 65.0781V66.5703C183.56 66.7734 183.12 66.9219 182.672 67.0156C182.224 67.1094 181.688 67.1562 181.062 67.1562C180.214 67.1562 179.466 66.9922 178.82 66.6641C178.18 66.3307 177.677 65.8359 177.312 65.1797C176.953 64.5234 176.773 63.7083 176.773 62.7344C176.773 61.7656 176.938 60.9427 177.266 60.2656C177.594 59.5885 178.055 59.0729 178.648 58.7188C179.242 58.3646 179.935 58.1875 180.727 58.1875ZM180.727 59.5703C180.148 59.5703 179.68 59.7578 179.32 60.1328C178.966 60.5078 178.758 61.0573 178.695 61.7812H182.633C182.628 61.349 182.555 60.9661 182.414 60.6328C182.279 60.2995 182.07 60.0391 181.789 59.8516C181.513 59.6641 181.159 59.5703 180.727 59.5703ZM188.344 67H186.5V54.8438H188.344V67ZM194.359 58.1875C195.453 58.1875 196.279 58.4297 196.836 58.9141C197.398 59.3984 197.68 60.1536 197.68 61.1797V67H196.375L196.023 65.7734H195.961C195.716 66.0859 195.464 66.3438 195.203 66.5469C194.943 66.75 194.641 66.901 194.297 67C193.958 67.1042 193.544 67.1562 193.055 67.1562C192.539 67.1562 192.078 67.0625 191.672 66.875C191.266 66.6823 190.945 66.3906 190.711 66C190.477 65.6094 190.359 65.1146 190.359 64.5156C190.359 63.625 190.69 62.9557 191.352 62.5078C192.018 62.0599 193.023 61.8125 194.367 61.7656L195.867 61.7109V61.2578C195.867 60.6589 195.727 60.2318 195.445 59.9766C195.169 59.7214 194.779 59.5938 194.273 59.5938C193.841 59.5938 193.422 59.6562 193.016 59.7812C192.609 59.9062 192.214 60.0599 191.828 60.2422L191.234 58.9453C191.656 58.7214 192.135 58.5391 192.672 58.3984C193.214 58.2578 193.776 58.1875 194.359 58.1875ZM195.859 62.8672L194.742 62.9062C193.826 62.9375 193.182 63.0938 192.812 63.375C192.443 63.6562 192.258 64.0417 192.258 64.5312C192.258 64.9583 192.385 65.2708 192.641 65.4688C192.896 65.6615 193.232 65.7578 193.648 65.7578C194.284 65.7578 194.81 65.5781 195.227 65.2188C195.648 64.8542 195.859 64.3203 195.859 63.6172V62.8672ZM203.469 65.6719C203.708 65.6719 203.945 65.651 204.18 65.6094C204.414 65.5625 204.628 65.5078 204.82 65.4453V66.8359C204.617 66.9245 204.354 67 204.031 67.0625C203.708 67.125 203.372 67.1562 203.023 67.1562C202.534 67.1562 202.094 67.0755 201.703 66.9141C201.312 66.7474 201.003 66.4635 200.773 66.0625C200.544 65.6615 200.43 65.1068 200.43 64.3984V59.75H199.25V58.9297L200.516 58.2812L201.117 56.4297H202.273V58.3516H204.75V59.75H202.273V64.375C202.273 64.8125 202.383 65.138 202.602 65.3516C202.82 65.5651 203.109 65.6719 203.469 65.6719ZM208.414 58.3516V67H206.578V58.3516H208.414ZM207.508 55.0391C207.789 55.0391 208.031 55.1146 208.234 55.2656C208.443 55.4167 208.547 55.6771 208.547 56.0469C208.547 56.4115 208.443 56.6719 208.234 56.8281C208.031 56.9792 207.789 57.0547 207.508 57.0547C207.216 57.0547 206.969 56.9792 206.766 56.8281C206.568 56.6719 206.469 56.4115 206.469 56.0469C206.469 55.6771 206.568 55.4167 206.766 55.2656C206.969 55.1146 207.216 55.0391 207.508 55.0391ZM218.703 62.6562C218.703 63.375 218.609 64.013 218.422 64.5703C218.234 65.1276 217.961 65.599 217.602 65.9844C217.242 66.3646 216.81 66.6562 216.305 66.8594C215.799 67.0573 215.229 67.1562 214.594 67.1562C214 67.1562 213.456 67.0573 212.961 66.8594C212.466 66.6562 212.036 66.3646 211.672 65.9844C211.312 65.599 211.034 65.1276 210.836 64.5703C210.638 64.013 210.539 63.375 210.539 62.6562C210.539 61.7031 210.703 60.8958 211.031 60.2344C211.365 59.5677 211.839 59.0599 212.453 58.7109C213.068 58.362 213.799 58.1875 214.648 58.1875C215.445 58.1875 216.148 58.362 216.758 58.7109C217.367 59.0599 217.844 59.5677 218.188 60.2344C218.531 60.901 218.703 61.7083 218.703 62.6562ZM212.43 62.6562C212.43 63.2865 212.505 63.8255 212.656 64.2734C212.812 64.7214 213.052 65.0651 213.375 65.3047C213.698 65.5391 214.115 65.6562 214.625 65.6562C215.135 65.6562 215.552 65.5391 215.875 65.3047C216.198 65.0651 216.435 64.7214 216.586 64.2734C216.737 63.8255 216.812 63.2865 216.812 62.6562C216.812 62.026 216.737 61.4922 216.586 61.0547C216.435 60.612 216.198 60.276 215.875 60.0469C215.552 59.8125 215.133 59.6953 214.617 59.6953C213.857 59.6953 213.302 59.9505 212.953 60.4609C212.604 60.9714 212.43 61.7031 212.43 62.6562ZM225.32 58.1875C226.294 58.1875 227.052 58.4401 227.594 58.9453C228.141 59.4453 228.414 60.25 228.414 61.3594V67H226.578V61.7031C226.578 61.0312 226.44 60.5286 226.164 60.1953C225.888 59.8568 225.461 59.6875 224.883 59.6875C224.044 59.6875 223.461 59.9453 223.133 60.4609C222.81 60.9766 222.648 61.724 222.648 62.7031V67H220.812V58.3516H222.242L222.5 59.5234H222.602C222.789 59.2214 223.021 58.974 223.297 58.7812C223.578 58.5833 223.891 58.4349 224.234 58.3359C224.583 58.237 224.945 58.1875 225.32 58.1875ZM236.797 64.5312C236.797 65.099 236.659 65.5781 236.383 65.9688C236.107 66.3594 235.703 66.6562 235.172 66.8594C234.646 67.0573 234 67.1562 233.234 67.1562C232.63 67.1562 232.109 67.112 231.672 67.0234C231.24 66.9401 230.831 66.8099 230.445 66.6328V65.0469C230.857 65.2396 231.318 65.4062 231.828 65.5469C232.344 65.6875 232.831 65.7578 233.289 65.7578C233.893 65.7578 234.328 65.6641 234.594 65.4766C234.859 65.2839 234.992 65.0286 234.992 64.7109C234.992 64.5234 234.938 64.3568 234.828 64.2109C234.724 64.0599 234.526 63.9062 234.234 63.75C233.948 63.5885 233.526 63.3958 232.969 63.1719C232.422 62.9531 231.961 62.7344 231.586 62.5156C231.211 62.2969 230.927 62.0339 230.734 61.7266C230.542 61.4141 230.445 61.0156 230.445 60.5312C230.445 59.7656 230.747 59.1849 231.352 58.7891C231.961 58.388 232.766 58.1875 233.766 58.1875C234.297 58.1875 234.797 58.2422 235.266 58.3516C235.74 58.4557 236.203 58.6094 236.656 58.8125L236.078 60.1953C235.688 60.0234 235.294 59.8828 234.898 59.7734C234.508 59.6589 234.109 59.6016 233.703 59.6016C233.229 59.6016 232.867 59.6745 232.617 59.8203C232.372 59.9661 232.25 60.1745 232.25 60.4453C232.25 60.6484 232.31 60.8203 232.43 60.9609C232.549 61.1016 232.755 61.2422 233.047 61.3828C233.344 61.5234 233.755 61.6979 234.281 61.9062C234.797 62.1042 235.242 62.3125 235.617 62.5312C235.997 62.7448 236.289 63.0078 236.492 63.3203C236.695 63.6328 236.797 64.0365 236.797 64.5312ZM240.617 54.8438V57.8984C240.617 58.2161 240.607 58.526 240.586 58.8281C240.57 59.1302 240.552 59.3646 240.531 59.5312H240.633C240.815 59.2292 241.039 58.9818 241.305 58.7891C241.57 58.5911 241.867 58.4427 242.195 58.3438C242.529 58.2448 242.883 58.1953 243.258 58.1953C243.919 58.1953 244.482 58.3073 244.945 58.5312C245.409 58.75 245.763 59.0911 246.008 59.5547C246.258 60.0182 246.383 60.6198 246.383 61.3594V67H244.547V61.7031C244.547 61.0312 244.409 60.5286 244.133 60.1953C243.857 59.8568 243.43 59.6875 242.852 59.6875C242.294 59.6875 241.852 59.8047 241.523 60.0391C241.201 60.2682 240.969 60.6094 240.828 61.0625C240.688 61.5104 240.617 62.0573 240.617 62.7031V67H238.781V54.8438H240.617ZM250.789 58.3516V67H248.953V58.3516H250.789ZM249.883 55.0391C250.164 55.0391 250.406 55.1146 250.609 55.2656C250.818 55.4167 250.922 55.6771 250.922 56.0469C250.922 56.4115 250.818 56.6719 250.609 56.8281C250.406 56.9792 250.164 57.0547 249.883 57.0547C249.591 57.0547 249.344 56.9792 249.141 56.8281C248.943 56.6719 248.844 56.4115 248.844 56.0469C248.844 55.6771 248.943 55.4167 249.141 55.2656C249.344 55.1146 249.591 55.0391 249.883 55.0391ZM257.859 58.1875C258.885 58.1875 259.708 58.5625 260.328 59.3125C260.953 60.0625 261.266 61.1771 261.266 62.6562C261.266 63.6354 261.12 64.4609 260.828 65.1328C260.542 65.7995 260.138 66.3047 259.617 66.6484C259.102 66.987 258.5 67.1562 257.812 67.1562C257.375 67.1562 256.995 67.099 256.672 66.9844C256.349 66.8698 256.073 66.7214 255.844 66.5391C255.615 66.3516 255.422 66.1484 255.266 65.9297H255.156C255.182 66.138 255.206 66.3698 255.227 66.625C255.253 66.875 255.266 67.1042 255.266 67.3125V70.8359H253.422V58.3516H254.922L255.18 59.5469H255.266C255.427 59.3021 255.622 59.0755 255.852 58.8672C256.086 58.6589 256.367 58.4948 256.695 58.375C257.029 58.25 257.417 58.1875 257.859 58.1875ZM257.367 59.6875C256.862 59.6875 256.456 59.7891 256.148 59.9922C255.846 60.1901 255.625 60.4896 255.484 60.8906C255.349 61.2917 255.276 61.7943 255.266 62.3984V62.6562C255.266 63.2969 255.331 63.8411 255.461 64.2891C255.596 64.7318 255.818 65.0703 256.125 65.3047C256.438 65.5339 256.859 65.6484 257.391 65.6484C257.839 65.6484 258.208 65.526 258.5 65.2812C258.797 65.0365 259.018 64.6875 259.164 64.2344C259.31 63.7812 259.383 63.2474 259.383 62.6328C259.383 61.7005 259.216 60.9766 258.883 60.4609C258.555 59.9453 258.049 59.6875 257.367 59.6875ZM272.664 67L269.375 57.4609H269.305C269.32 57.6745 269.339 57.9661 269.359 58.3359C269.38 58.7057 269.398 59.1016 269.414 59.5234C269.43 59.9453 269.438 60.349 269.438 60.7344V67H267.734V55.5781H270.367L273.531 64.6953H273.578L276.852 55.5781H279.477V67H277.688V60.6406C277.688 60.2917 277.693 59.9141 277.703 59.5078C277.719 59.1016 277.734 58.7161 277.75 58.3516C277.771 57.987 277.786 57.6953 277.797 57.4766H277.734L274.32 67H272.664ZM285.688 58.1875C286.781 58.1875 287.607 58.4297 288.164 58.9141C288.727 59.3984 289.008 60.1536 289.008 61.1797V67H287.703L287.352 65.7734H287.289C287.044 66.0859 286.792 66.3438 286.531 66.5469C286.271 66.75 285.969 66.901 285.625 67C285.286 67.1042 284.872 67.1562 284.383 67.1562C283.867 67.1562 283.406 67.0625 283 66.875C282.594 66.6823 282.273 66.3906 282.039 66C281.805 65.6094 281.688 65.1146 281.688 64.5156C281.688 63.625 282.018 62.9557 282.68 62.5078C283.346 62.0599 284.352 61.8125 285.695 61.7656L287.195 61.7109V61.2578C287.195 60.6589 287.055 60.2318 286.773 59.9766C286.497 59.7214 286.107 59.5938 285.602 59.5938C285.169 59.5938 284.75 59.6562 284.344 59.7812C283.938 59.9062 283.542 60.0599 283.156 60.2422L282.562 58.9453C282.984 58.7214 283.464 58.5391 284 58.3984C284.542 58.2578 285.104 58.1875 285.688 58.1875ZM287.188 62.8672L286.07 62.9062C285.154 62.9375 284.51 63.0938 284.141 63.375C283.771 63.6562 283.586 64.0417 283.586 64.5312C283.586 64.9583 283.714 65.2708 283.969 65.4688C284.224 65.6615 284.56 65.7578 284.977 65.7578C285.612 65.7578 286.138 65.5781 286.555 65.2188C286.977 64.8542 287.188 64.3203 287.188 63.6172V62.8672ZM296.086 58.1875C297.06 58.1875 297.818 58.4401 298.359 58.9453C298.906 59.4453 299.18 60.25 299.18 61.3594V67H297.344V61.7031C297.344 61.0312 297.206 60.5286 296.93 60.1953C296.654 59.8568 296.227 59.6875 295.648 59.6875C294.81 59.6875 294.227 59.9453 293.898 60.4609C293.576 60.9766 293.414 61.724 293.414 62.7031V67H291.578V58.3516H293.008L293.266 59.5234H293.367C293.555 59.2214 293.786 58.974 294.062 58.7812C294.344 58.5833 294.656 58.4349 295 58.3359C295.349 58.237 295.711 58.1875 296.086 58.1875ZM305.141 58.1875C306.234 58.1875 307.06 58.4297 307.617 58.9141C308.18 59.3984 308.461 60.1536 308.461 61.1797V67H307.156L306.805 65.7734H306.742C306.497 66.0859 306.245 66.3438 305.984 66.5469C305.724 66.75 305.422 66.901 305.078 67C304.74 67.1042 304.326 67.1562 303.836 67.1562C303.32 67.1562 302.859 67.0625 302.453 66.875C302.047 66.6823 301.727 66.3906 301.492 66C301.258 65.6094 301.141 65.1146 301.141 64.5156C301.141 63.625 301.471 62.9557 302.133 62.5078C302.799 62.0599 303.805 61.8125 305.148 61.7656L306.648 61.7109V61.2578C306.648 60.6589 306.508 60.2318 306.227 59.9766C305.951 59.7214 305.56 59.5938 305.055 59.5938C304.622 59.5938 304.203 59.6562 303.797 59.7812C303.391 59.9062 302.995 60.0599 302.609 60.2422L302.016 58.9453C302.438 58.7214 302.917 58.5391 303.453 58.3984C303.995 58.2578 304.557 58.1875 305.141 58.1875ZM306.641 62.8672L305.523 62.9062C304.607 62.9375 303.964 63.0938 303.594 63.375C303.224 63.6562 303.039 64.0417 303.039 64.5312C303.039 64.9583 303.167 65.2708 303.422 65.4688C303.677 65.6615 304.013 65.7578 304.43 65.7578C305.065 65.7578 305.591 65.5781 306.008 65.2188C306.43 64.8542 306.641 64.3203 306.641 63.6172V62.8672ZM313.5 70.8438C312.328 70.8438 311.43 70.6328 310.805 70.2109C310.18 69.7891 309.867 69.1979 309.867 68.4375C309.867 67.9062 310.034 67.4557 310.367 67.0859C310.701 66.7214 311.177 66.4688 311.797 66.3281C311.562 66.224 311.359 66.0625 311.188 65.8438C311.021 65.6198 310.938 65.3724 310.938 65.1016C310.938 64.7786 311.029 64.5026 311.211 64.2734C311.393 64.0443 311.667 63.8229 312.031 63.6094C311.578 63.4167 311.214 63.1042 310.938 62.6719C310.667 62.2344 310.531 61.7214 310.531 61.1328C310.531 60.5078 310.664 59.9766 310.93 59.5391C311.195 59.0964 311.583 58.7604 312.094 58.5312C312.604 58.2969 313.221 58.1797 313.945 58.1797C314.102 58.1797 314.271 58.1901 314.453 58.2109C314.641 58.2266 314.812 58.2474 314.969 58.2734C315.13 58.2943 315.253 58.3177 315.336 58.3438H318.328V59.3672L316.859 59.6406C317 59.8385 317.112 60.0651 317.195 60.3203C317.279 60.5703 317.32 60.8438 317.32 61.1406C317.32 62.0365 317.01 62.7422 316.391 63.2578C315.776 63.7682 314.927 64.0234 313.844 64.0234C313.583 64.013 313.331 63.9922 313.086 63.9609C312.898 64.0755 312.755 64.2031 312.656 64.3438C312.557 64.4792 312.508 64.6328 312.508 64.8047C312.508 64.9453 312.557 65.0599 312.656 65.1484C312.755 65.2318 312.901 65.2943 313.094 65.3359C313.292 65.3776 313.531 65.3984 313.812 65.3984H315.305C316.253 65.3984 316.977 65.599 317.477 66C317.977 66.401 318.227 66.9896 318.227 67.7656C318.227 68.75 317.82 69.5078 317.008 70.0391C316.195 70.5755 315.026 70.8438 313.5 70.8438ZM313.57 69.5547C314.211 69.5547 314.75 69.4922 315.188 69.3672C315.625 69.2422 315.956 69.0625 316.18 68.8281C316.404 68.599 316.516 68.3255 316.516 68.0078C316.516 67.7266 316.445 67.5104 316.305 67.3594C316.164 67.2083 315.953 67.1042 315.672 67.0469C315.391 66.9896 315.042 66.9609 314.625 66.9609H313.266C312.927 66.9609 312.628 67.013 312.367 67.1172C312.107 67.2266 311.904 67.3828 311.758 67.5859C311.617 67.7891 311.547 68.0339 311.547 68.3203C311.547 68.7161 311.721 69.0208 312.07 69.2344C312.424 69.4479 312.924 69.5547 313.57 69.5547ZM313.93 62.8203C314.466 62.8203 314.865 62.6745 315.125 62.3828C315.385 62.0859 315.516 61.6693 315.516 61.1328C315.516 60.5495 315.38 60.112 315.109 59.8203C314.844 59.5286 314.448 59.3828 313.922 59.3828C313.406 59.3828 313.013 59.5312 312.742 59.8281C312.477 60.125 312.344 60.5651 312.344 61.1484C312.344 61.6745 312.477 62.0859 312.742 62.3828C313.013 62.6745 313.409 62.8203 313.93 62.8203ZM323.352 58.1875C324.122 58.1875 324.784 58.3464 325.336 58.6641C325.888 58.9818 326.312 59.4323 326.609 60.0156C326.906 60.599 327.055 61.2969 327.055 62.1094V63.0938H321.281C321.302 63.9323 321.526 64.5781 321.953 65.0312C322.385 65.4844 322.99 65.7109 323.766 65.7109C324.318 65.7109 324.812 65.6589 325.25 65.5547C325.693 65.4453 326.148 65.2865 326.617 65.0781V66.5703C326.185 66.7734 325.745 66.9219 325.297 67.0156C324.849 67.1094 324.312 67.1562 323.688 67.1562C322.839 67.1562 322.091 66.9922 321.445 66.6641C320.805 66.3307 320.302 65.8359 319.938 65.1797C319.578 64.5234 319.398 63.7083 319.398 62.7344C319.398 61.7656 319.562 60.9427 319.891 60.2656C320.219 59.5885 320.68 59.0729 321.273 58.7188C321.867 58.3646 322.56 58.1875 323.352 58.1875ZM323.352 59.5703C322.773 59.5703 322.305 59.7578 321.945 60.1328C321.591 60.5078 321.383 61.0573 321.32 61.7812H325.258C325.253 61.349 325.18 60.9661 325.039 60.6328C324.904 60.2995 324.695 60.0391 324.414 59.8516C324.138 59.6641 323.784 59.5703 323.352 59.5703ZM338.898 58.1875C339.867 58.1875 340.596 58.4375 341.086 58.9375C341.581 59.4375 341.828 60.2396 341.828 61.3438V67H339.992V61.6719C339.992 61.0156 339.865 60.5208 339.609 60.1875C339.354 59.8542 338.966 59.6875 338.445 59.6875C337.716 59.6875 337.19 59.9219 336.867 60.3906C336.549 60.8542 336.391 61.5286 336.391 62.4141V67H334.555V61.6719C334.555 61.2344 334.497 60.8698 334.383 60.5781C334.273 60.2812 334.104 60.0599 333.875 59.9141C333.646 59.763 333.357 59.6875 333.008 59.6875C332.503 59.6875 332.099 59.8021 331.797 60.0312C331.5 60.2604 331.286 60.599 331.156 61.0469C331.026 61.4896 330.961 62.0339 330.961 62.6797V67H329.125V58.3516H330.555L330.812 59.5156H330.914C331.091 59.2135 331.31 58.9661 331.57 58.7734C331.836 58.5755 332.13 58.4297 332.453 58.3359C332.776 58.237 333.112 58.1875 333.461 58.1875C334.107 58.1875 334.651 58.3021 335.094 58.5312C335.536 58.7552 335.867 59.099 336.086 59.5625H336.227C336.497 59.0938 336.875 58.7474 337.359 58.5234C337.844 58.2995 338.357 58.1875 338.898 58.1875ZM347.836 58.1875C348.607 58.1875 349.268 58.3464 349.82 58.6641C350.372 58.9818 350.797 59.4323 351.094 60.0156C351.391 60.599 351.539 61.2969 351.539 62.1094V63.0938H345.766C345.786 63.9323 346.01 64.5781 346.438 65.0312C346.87 65.4844 347.474 65.7109 348.25 65.7109C348.802 65.7109 349.297 65.6589 349.734 65.5547C350.177 65.4453 350.633 65.2865 351.102 65.0781V66.5703C350.669 66.7734 350.229 66.9219 349.781 67.0156C349.333 67.1094 348.797 67.1562 348.172 67.1562C347.323 67.1562 346.576 66.9922 345.93 66.6641C345.289 66.3307 344.786 65.8359 344.422 65.1797C344.062 64.5234 343.883 63.7083 343.883 62.7344C343.883 61.7656 344.047 60.9427 344.375 60.2656C344.703 59.5885 345.164 59.0729 345.758 58.7188C346.352 58.3646 347.044 58.1875 347.836 58.1875ZM347.836 59.5703C347.258 59.5703 346.789 59.7578 346.43 60.1328C346.076 60.5078 345.867 61.0573 345.805 61.7812H349.742C349.737 61.349 349.664 60.9661 349.523 60.6328C349.388 60.2995 349.18 60.0391 348.898 59.8516C348.622 59.6641 348.268 59.5703 347.836 59.5703ZM358.117 58.1875C359.091 58.1875 359.849 58.4401 360.391 58.9453C360.938 59.4453 361.211 60.25 361.211 61.3594V67H359.375V61.7031C359.375 61.0312 359.237 60.5286 358.961 60.1953C358.685 59.8568 358.258 59.6875 357.68 59.6875C356.841 59.6875 356.258 59.9453 355.93 60.4609C355.607 60.9766 355.445 61.724 355.445 62.7031V67H353.609V58.3516H355.039L355.297 59.5234H355.398C355.586 59.2214 355.818 58.974 356.094 58.7812C356.375 58.5833 356.688 58.4349 357.031 58.3359C357.38 58.237 357.742 58.1875 358.117 58.1875ZM367 65.6719C367.24 65.6719 367.477 65.651 367.711 65.6094C367.945 65.5625 368.159 65.5078 368.352 65.4453V66.8359C368.148 66.9245 367.885 67 367.562 67.0625C367.24 67.125 366.904 67.1562 366.555 67.1562C366.065 67.1562 365.625 67.0755 365.234 66.9141C364.844 66.7474 364.534 66.4635 364.305 66.0625C364.076 65.6615 363.961 65.1068 363.961 64.3984V59.75H362.781V58.9297L364.047 58.2812L364.648 56.4297H365.805V58.3516H368.281V59.75H365.805V64.375C365.805 64.8125 365.914 65.138 366.133 65.3516C366.352 65.5651 366.641 65.6719 367 65.6719Z" fill="#3E4D4D"/>
</svg>
